<svg xmlns="http://www.w3.org/2000/svg" width="11.097" height="12.565" viewBox="0 0 11.097 12.565"><defs><style>.a{fill:#a5c9d9;}</style></defs><path class="a" d="M31.576.16A1.09,1.09,0,0,0,30.53.11l5.641,5.653L38.015,3.91ZM30.011.633a1.15,1.15,0,0,0-.109.491V11.465a1.106,1.106,0,0,0,.11.486l5.639-5.666Zm6.16,6.173L30.54,12.465a1.105,1.105,0,0,0,.467.1,1.094,1.094,0,0,0,.569-.153l6.441-3.756Zm4.3-1.468-.007,0L38.673,4.293,36.691,6.284l1.983,1.988,1.794-1.046a1.1,1.1,0,0,0,0-1.888Z" transform="translate(-29.902 0)"/></svg>