<svg xmlns="http://www.w3.org/2000/svg" width="19.204" height="23.5" viewBox="0 0 19.204 23.5"><defs><style>.a{fill:#fff;}</style></defs><path class="a" d="M28.866,75.386c-1.987,3.448-.724,8.679,1.473,11.852,1.1,1.586,2.207,3.01,3.728,3.01l.087,0a4.6,4.6,0,0,0,1.73-.461,4.737,4.737,0,0,1,2.049-.486,4.455,4.455,0,0,1,1.951.47,4.133,4.133,0,0,0,1.869.448c1.713-.032,2.765-1.568,3.693-2.923a12.958,12.958,0,0,0,1.618-3.314l.007-.021a.193.193,0,0,0-.1-.236l-.014-.006a4.91,4.91,0,0,1-2.975-4.5,5.054,5.054,0,0,1,2.388-4.225l.019-.012a.193.193,0,0,0,.055-.271,5.558,5.558,0,0,0-4.372-2.374c-.124-.012-.253-.019-.381-.019a7.621,7.621,0,0,0-2.744.685,4.41,4.41,0,0,1-1.314.393,4.3,4.3,0,0,1-1.36-.4,6.588,6.588,0,0,0-2.4-.609h-.061A5.876,5.876,0,0,0,28.866,75.386Z" transform="translate(-27.875 -66.748)"/><path class="a" d="M154.056,0a5.366,5.366,0,0,0-3.542,1.817,5.027,5.027,0,0,0-1.273,3.728.193.193,0,0,0,.176.167c.082.006.166.01.249.01a4.539,4.539,0,0,0,3.344-1.715A5.3,5.3,0,0,0,154.255.172.194.194,0,0,0,154.056,0Z" transform="translate(-139.861 0)"/></svg>