<svg xmlns="http://www.w3.org/2000/svg" width="8" height="5" viewBox="0 0 8 5"><defs><style>.a{fill:#29303b;}</style></defs><path class="a" d="M653.81,72.57l-.385-.382a.66.66,0,0,0-.467-.188.631.631,0,0,0-.462.188L650,74.662l-2.5-2.475a.632.632,0,0,0-.462-.188.661.661,0,0,0-.467.188l-.38.382a.629.629,0,0,0-.2.463.6.6,0,0,0,.2.458l3.343,3.315A.613.613,0,0,0,650,77a.641.641,0,0,0,.467-.193l3.343-3.315a.621.621,0,0,0,.19-.458A.649.649,0,0,0,653.81,72.57Z" transform="translate(-646 -71.999)"/></svg>