<svg xmlns="http://www.w3.org/2000/svg" width="14.431" height="17.659" viewBox="0 0 14.431 17.659"><defs><style>.a{fill:#a5c9d9;}</style></defs><path class="a" d="M28.62,74.624c-1.493,2.591-.544,6.522,1.107,8.906.824,1.192,1.658,2.262,2.8,2.262h.065a3.459,3.459,0,0,0,1.3-.346,3.56,3.56,0,0,1,1.54-.365,3.348,3.348,0,0,1,1.466.353,3.105,3.105,0,0,0,1.4.337c1.287-.024,2.078-1.178,2.775-2.2a9.737,9.737,0,0,0,1.216-2.49l0-.016a.145.145,0,0,0-.077-.178l-.011,0a3.69,3.69,0,0,1-2.236-3.379A3.8,3.8,0,0,1,41.77,74.33l.014-.009a.145.145,0,0,0,.041-.2,4.177,4.177,0,0,0-3.285-1.784c-.093-.009-.19-.014-.287-.014a5.727,5.727,0,0,0-2.062.515,3.314,3.314,0,0,1-.988.3,3.232,3.232,0,0,1-1.022-.3,4.95,4.95,0,0,0-1.8-.457h-.046A4.415,4.415,0,0,0,28.62,74.624Z" transform="translate(-27.875 -68.133)"/><path class="a" d="M152.851,0a4.032,4.032,0,0,0-2.662,1.365,3.778,3.778,0,0,0-.956,2.8.145.145,0,0,0,.132.125c.062,0,.124.007.187.007a3.411,3.411,0,0,0,2.513-1.289A3.983,3.983,0,0,0,153,.129.146.146,0,0,0,152.851,0Z" transform="translate(-142.185 0)"/></svg>