<svg xmlns="http://www.w3.org/2000/svg" width="14.369" height="16.27" viewBox="0 0 14.369 16.27"><defs><style>.a{fill:#fff;}</style></defs><path class="a" d="M32.069.207A1.411,1.411,0,0,0,30.715.143l7.3,7.32,2.388-2.4ZM30.044.82a1.489,1.489,0,0,0-.142.636v13.39a1.432,1.432,0,0,0,.143.629l7.3-7.336ZM38.02,8.813l-7.293,7.327a1.431,1.431,0,0,0,.605.129,1.416,1.416,0,0,0,.737-.2l8.34-4.863Zm5.563-1.9-.009-.005L41.259,5.559,38.693,8.138l2.568,2.574,2.323-1.354a1.43,1.43,0,0,0,0-2.445Z" transform="translate(-29.902 0)"/></svg>