<svg xmlns="http://www.w3.org/2000/svg" width="14.082" height="14.082" viewBox="0 0 14.082 14.082"><defs><style>.a{fill:#4a5363;}</style></defs><path class="a" d="M213.475,212.238A1.238,1.238,0,1,1,212.238,211,1.238,1.238,0,0,1,213.475,212.238Zm0,0" transform="translate(-205.197 -205.197)"/><path class="a" d="M125.831,120H121.65a1.652,1.652,0,0,0-1.65,1.65v4.181a1.652,1.652,0,0,0,1.65,1.65h4.181a1.652,1.652,0,0,0,1.65-1.65V121.65A1.652,1.652,0,0,0,125.831,120Zm-2.09,5.8a2.063,2.063,0,1,1,2.063-2.063A2.065,2.065,0,0,1,123.741,125.8Zm2.365-4.016a.413.413,0,1,1,.413-.413A.413.413,0,0,1,126.106,121.788Zm0,0" transform="translate(-116.7 -116.7)"/><path class="a" d="M10.369,0H3.713A3.717,3.717,0,0,0,0,3.713v6.656a3.717,3.717,0,0,0,3.713,3.713h6.656a3.717,3.717,0,0,0,3.713-3.713V3.713A3.717,3.717,0,0,0,10.369,0Zm1.238,9.131a2.478,2.478,0,0,1-2.475,2.475H4.951A2.478,2.478,0,0,1,2.475,9.131V4.951A2.478,2.478,0,0,1,4.951,2.475H9.131a2.478,2.478,0,0,1,2.475,2.475Zm0,0"/></svg>