<svg xmlns="http://www.w3.org/2000/svg" xmlns:xlink="http://www.w3.org/1999/xlink" width="52.223" height="44" viewBox="0 0 52.223 44"><defs><style>.a{fill:#fff;}.b{clip-path:url(#a);}.c,.e{fill:#31c9c9;}.c{fill-rule:evenodd;}.d{fill:#2daaa6;}</style><clipPath id="a"><path class="a" d="M0,0,52.223.008,52.2,43.966,0,44Z"/></clipPath></defs><g class="b"><g transform="translate(9.945 -47.209)"><path class="c" d="M22.066-53.045a4.886,4.886,0,0,1-5.535-.917,4.724,4.724,0,0,1,0-6.745L27.555-71.583a4.723,4.723,0,0,0,.759,5.775,4.881,4.881,0,0,0,6.837,0l38.63-38.111a4.786,4.786,0,0,1-.759.97L53.911-84.1a4.886,4.886,0,0,1,5.912.715,4.722,4.722,0,0,1,.535,6.119l19.255-19a5.02,5.02,0,0,1,7.032,0,4.859,4.859,0,0,1,0,6.937l-49.46,48.8a5.021,5.021,0,0,1-7.032,0,4.858,4.858,0,0,1-.543-6.3l-.029.029a4.857,4.857,0,0,0-.737-6.013A5.021,5.021,0,0,0,22.066-53.045Zm35.841-55.242a4.724,4.724,0,0,1,0,6.745L8.253-52.554a4.881,4.881,0,0,1-6.837,0,4.724,4.724,0,0,1,0-6.745L51.07-108.287a4.881,4.881,0,0,1,6.837,0Z" transform="translate(0 127.393)"/><g transform="translate(18.233)"><path class="d" d="M56.743,64.962l-5.051,4.983a4.55,4.55,0,0,1-6.373,0,4.4,4.4,0,0,1,0-6.288L91.6,17.995a4.55,4.55,0,0,1,6.373,0,4.4,4.4,0,0,1,.593,5.566l5.051-4.982a4.5,4.5,0,0,1,1.792-1.085L99.7,23.133a4.4,4.4,0,0,0,0,6.288,4.542,4.542,0,0,0,4.044,1.221l17.84-17.6a4.55,4.55,0,0,1,6.373,0,4.4,4.4,0,0,1,0,6.287l-27.874,27.5a4.4,4.4,0,0,0-.76-5.294,4.55,4.55,0,0,0-6.373,0l-30,29.6a4.554,4.554,0,0,1-5.607-.608,4.4,4.4,0,0,1-.593-5.566Zm42.57-17.133.007-.007a4.464,4.464,0,0,0,.684-.864L146.281,1.3a4.55,4.55,0,0,1,6.373,0,4.4,4.4,0,0,1,0,6.288L106.369,53.252a4.55,4.55,0,0,1-6.373,0,4.4,4.4,0,0,1-.683-5.423Z" transform="translate(-44 0)"/></g><g transform="translate(32.736 64.594)"><path class="e" d="M83.43,158.749a2.536,2.536,0,0,1,0,3.621,2.621,2.621,0,0,1-3.671,0,2.536,2.536,0,0,1,0-3.621A2.621,2.621,0,0,1,83.43,158.749Z" transform="translate(-78.999 -157.999)"/></g></g></g></svg>